<svg xmlns="http://www.w3.org/2000/svg" viewBox="0 0 408.189 92.126">
    <g id="Logotype_3_" fill="#141EC5">
        <path id="S_1_" d="M381.048 53.275l-.634-.143c-9.145-2.073-12.568-2.849-12.568-6.948 0-2.037 1.171-6.773 12.011-6.773 7.11 0 11.479 2.131 13.312 7.155h13.987c-2.085-9.035-8.525-18.22-26.724-18.22-8.004 0-14.685 1.831-19.321 5.295-4.611 3.446-7.048 8.466-7.048 14.52 0 9.457 5.444 13.493 24.275 17.994 1.464.355 2.82.664 4.066.947 7.199 1.639 11.545 2.627 11.545 7.413 0 4.417-4.08 6.656-12.127 6.656-9.202 0-14.445-2.736-16.388-9.241h-13.937c2.824 12.756 14.094 20.196 29.858 20.196 12.973 0 26.835-5.206 26.835-19.819-.001-11.51-8.694-14.775-27.142-19.032z"></path>
        <path id="E_3_" d="M311.811 28.346c-17.615 0-31.89 14.28-31.89 31.89 0 17.615 14.275 31.89 31.89 31.89 13.485 0 25.015-8.37 29.68-20.195h-15.51c-3.23 4.735-8.375 7.795-14.17 7.795-8.57 0-15.725-6.695-17.365-15.59h49.02a32.35 32.35 0 0 0 .235-3.9c0-17.61-14.28-31.89-31.89-31.89zm-16.635 25.16c2.49-7.445 9-12.76 16.635-12.76 7.635 0 14.14 5.315 16.63 12.76h-33.265z"></path>
        <path id="M_1_" d="M243.78 28.346c-7.246 0-13.781 3.026-18.425 7.877-4.644-4.851-11.179-7.877-18.425-7.877-14.09 0-25.512 11.422-25.512 25.512v38.268h14.173V53.858c0-6.252 5.087-11.339 11.339-11.339s11.339 5.086 11.339 11.339v38.268h14.173V53.858c0-6.252 5.087-11.339 11.339-11.339s11.339 5.086 11.339 11.339v38.268h14.173V53.858c-.001-14.09-11.423-25.512-25.513-25.512z"></path>
        <path id="L_1_" d="M152.362 92.126h14.173V0l-14.173 3.023z"></path>
        <path id="E_2_" d="M108.426 28.346c-17.615 0-31.89 14.28-31.89 31.89 0 17.615 14.275 31.89 31.89 31.89 13.485 0 25.015-8.37 29.68-20.195h-15.51c-3.23 4.735-8.375 7.795-14.17 7.795-8.57 0-15.725-6.695-17.365-15.59h49.02a32.35 32.35 0 0 0 .235-3.9c0-17.61-14.28-31.89-31.89-31.89zm-16.635 25.16c2.49-7.445 9-12.76 16.635-12.76 7.635 0 14.14 5.315 16.63 12.76H91.791z"></path>
        <path id="H_1_" d="M49.606 14.173v31.89H14.173v-31.89H0v77.953h14.173v-31.89h35.433v31.89H63.78V14.173z"></path>
    </g>
</svg>